<?xml version="1.0" encoding="utf-8"?><svg version="1.1" id="Layer_1" xmlns="http://www.w3.org/2000/svg" xmlns:xlink="http://www.w3.org/1999/xlink" x="0px" y="0px" viewBox="0 0 122.88 64.39" style="enable-background:new 0 0 122.88 64.39" xml:space="preserve"><style type="text/css"><![CDATA[
	.st0{fill-rule:evenodd;clip-rule:evenodd;fill:#424242;}
	.st1{fill-rule:evenodd;clip-rule:evenodd;fill:#42A6F4;}
	.st2{fill-rule:evenodd;clip-rule:evenodd;fill:#442D25;}
	.st3{fill-rule:evenodd;clip-rule:evenodd;fill:#1E87E6;}
	.st4{fill-rule:evenodd;clip-rule:evenodd;fill:#53372D;}
	.st5{fill-rule:evenodd;clip-rule:evenodd;fill:#FBA862;}
	.st6{fill-rule:evenodd;clip-rule:evenodd;fill:#FBC587;}
	.st7{fill-rule:evenodd;clip-rule:evenodd;fill:#FF99CC;}
	.st8{fill-rule:evenodd;clip-rule:evenodd;fill:#CF5391;}
]]></style><g><path class="st7" d="M10.19,15.96c2.2-1.89,7.28-5.72,9.95-2.83c3.78,9.39,15.08,7.56,19.91,10.14c1.74,0.93-0.74,2.41-0.68,3.5 c1.1,3.31-1.25,3.89-3.48,4.29l-25.7-0.14V15.96L10.19,15.96z"/><path class="st4" d="M115,20.96h5.56c1.27,0,2.31,1.04,2.31,2.31v8.94v19.23v8.94c0,1.27-1.04,2.32-2.31,2.32H115 c-1.27,0-2.31-1.04-2.31-2.32v-7.64H10.19v9.32c0,1.27-1.04,2.31-2.31,2.31H2.32C1.04,64.39,0,63.34,0,62.07V3.55 c0-1.27,1.04-2.31,2.32-2.31h5.56c1.27,0,2.31,1.04,2.31,2.31v27.37h102.49v-7.64C112.69,22,113.73,20.96,115,20.96L115,20.96z"/><path class="st5" d="M33.97,22.69c5.33,0.09,7.75-2.41,6.59-8.07c0.45,0.48,0.62,0.67,1.07,1.15l0.5,10.95 C40.48,24.23,36.75,23.28,33.97,22.69L33.97,22.69z"/><path class="st8" d="M13.71,24.42l0.5,1.54l1.62,0l-1.31,0.95l0.5,1.54l-1.31-0.95l-1.31,0.95l0.5-1.54l-1.31-0.95l1.62,0 L13.71,24.42L13.71,24.42z M16.13,15l0.59,1.83l1.43,0l0.13,0.25l-1.2,0.87l0.6,1.82l-1.55-1.13l-1.55,1.13l0.6-1.82l-1.55-1.12 l1.92,0L16.13,15L16.13,15z M21.34,21.25l0.52,1.61l1.69,0l-1.37,0.99l0.53,1.61l-1.37-1l-1.37,1l0.53-1.61l-1.37-0.99l1.69,0 L21.34,21.25L21.34,21.25z M22.59,26.45l0.76,2.35l2.47,0l-2,1.45l0.22,0.67h-2.9l0.22-0.67l-2-1.45l2.47,0L22.59,26.45 L22.59,26.45z M35.49,24.35l1.04,3.22l0.97,0c-0.32,1.12-0.58,2.25-0.97,3.35H35.7l-0.21-0.15l-0.21,0.15h-1.92l0.45-1.38 l-2.74-1.98l3.38,0.01L35.49,24.35L35.49,24.35z"/><polygon class="st2" points="5.86,6.99 5.86,45.69 117.46,45.69 117.46,25.1 118.95,25.1 118.95,58.63 117.46,58.63 117.46,47.18 5.86,47.18 5.86,58.63 4.37,58.63 4.37,6.99 5.86,6.99"/><path class="st1" d="M35.97,30.54c1.86-6.22,3.16-12.62,3.66-19.1C39.78,9.46,42,8.58,42,6.66c1.18-6.59,9.99-3.43,15.05-0.87 c7.44,3.48,11.2,6.16,19.09,7.48c2.58,0.43,5.25,0.6,7.98,0.56c7.68,0.44,15.3,0.7,21.69,2.92c10.06,3.51,6.41,17.98,4.74,26.46 c-2.47-0.08-4.06,0.62-5.34,1.39c-4.43,2.66-5.95,2.53-10.59,0.18c-1.93-0.98-3.88-1.32-6.02-1c-9.79,2.01-19.35,2.55-28.56,0.88 c-3.57-0.65-5.08-1.82-8.61-0.9c-1.65,0.43-3.28,0.87-4.87,0.68c-1.78-0.21-2.75-0.99-3.82-1.75c-2.13-1.51-5.3-2.58-7.03,0.14 C34.28,37.88,34.72,33.72,35.97,30.54L35.97,30.54z"/><path class="st3" d="M43.94,25.45l0.88,2.72l2.86-0.01l-2.32,1.68l0.89,2.72l-2.31-1.69l-2.31,1.69l0.89-2.72l-2.32-1.68l2.86,0.01 L43.94,25.45L43.94,25.45z M50.7,37.58l0.58,1.8l1.9,0l-1.54,1.11l0.59,1.8l-1.53-1.12l-1.53,1.12l0.59-1.8l-1.54-1.11l1.9,0 L50.7,37.58L50.7,37.58z M101.77,39.22l-0.52,1.61l-1.69,0l1.37,0.99l-0.53,1.61l1.37-1l1.37,1l-0.53-1.61l1.37-0.99l-1.69,0 L101.77,39.22L101.77,39.22z M86.75,37.84l0.52,1.61l1.69,0l-1.37,0.99l0.53,1.61l-1.37-1l-1.37,1l0.53-1.61l-1.37-0.99l1.69,0 L86.75,37.84L86.75,37.84z M64.03,34.55l-0.04,2.88l-2.75,0.84l2.73,0.93l-0.05,2.88l1.72-2.31l2.72,0.94l-1.66-2.35l1.73-2.3 l-2.75,0.85L64.03,34.55L64.03,34.55z M87.93,18.44l-0.79,2.44l-2.57,0l2.08,1.5l-0.8,2.44l2.07-1.51L90,24.82l-0.8-2.44l2.08-1.5 l-2.57,0L87.93,18.44L87.93,18.44z M82.2,28.08l0.52,1.61l1.69,0l-1.37,0.99l0.53,1.61l-1.37-1l-1.37,1l0.53-1.61l-1.37-0.99 l1.69,0L82.2,28.08L82.2,28.08z M76.17,34.89l-0.04,2.86l-2.74,0.84l2.71,0.92l-0.05,2.86l1.71-2.29l2.7,0.93l-1.65-2.34l1.72-2.28 l-2.73,0.85L76.17,34.89L76.17,34.89z M59.21,9.3l-0.04,2.88l-2.75,0.84l2.73,0.93l-0.05,2.88l1.72-2.31l2.72,0.94l-1.66-2.35 l1.73-2.3l-2.75,0.85L59.21,9.3L59.21,9.3z M64.86,18.92l-0.04,2.88l-2.75,0.84l2.73,0.93l-0.05,2.88l1.72-2.31l2.72,0.94 l-1.66-2.35l1.73-2.3l-2.75,0.85L64.86,18.92L64.86,18.92z M77.35,16.32l-0.03,1.9l-1.81,0.55l1.79,0.61l-0.03,1.89l1.13-1.52 l1.79,0.62l-1.09-1.55l1.14-1.51l-1.81,0.56L77.35,16.32L77.35,16.32z M69.52,29.78l-0.03,1.9l-1.81,0.55l1.79,0.61l-0.03,1.9 l1.13-1.52l1.79,0.62l-1.09-1.55l1.14-1.51l-1.81,0.56L69.52,29.78L69.52,29.78z M55,27.96l-0.04,3.21l-3.07,0.94l3.04,1.03 l-0.06,3.21l1.92-2.57l3.03,1.04l-1.85-2.62l1.93-2.56l-3.06,0.95L55,27.96L55,27.96z M98.81,17.94l-0.79,2.44l-2.57,0l2.08,1.5 l-0.8,2.44l2.07-1.51l2.07,1.51l-0.8-2.44l2.08-1.5l-2.57,0L98.81,17.94L98.81,17.94z M107.32,22.23l-0.52,1.61l-1.69,0l1.37,0.99 l-0.53,1.61l1.37-1l1.37,1l-0.53-1.61l1.37-0.99l-1.69,0L107.32,22.23L107.32,22.23z M105.88,29.69l-0.52,1.61l-1.69,0l1.37,0.99 l-0.53,1.61l1.37-1l1.37,1l-0.53-1.61l1.37-0.99l-1.69,0L105.88,29.69L105.88,29.69z M95.9,30.4l-0.88,2.72l-2.86-0.01l2.32,1.68 l-0.89,2.72l2.31-1.69l2.31,1.69l-0.89-2.72l2.32-1.68l-2.86,0.01L95.9,30.4L95.9,30.4z M48.21,4.15l0.88,2.74l2.88-0.01 l-2.33,1.69l0.89,2.74l-2.33-1.7l-2.33,1.7l0.89-2.74l-2.33-1.69l2.88,0.01L48.21,4.15L48.21,4.15z M51.66,18.85l0.58,1.8l1.9,0 l-1.54,1.11l0.59,1.8l-1.53-1.12l-1.53,1.12l0.59-1.8l-1.54-1.11l1.9,0L51.66,18.85L51.66,18.85z M38.86,34.99l0.58,1.8l1.9,0 L39.8,37.9l0.59,1.8l-1.53-1.12l-1.53,1.12l0.59-1.8l-1.54-1.11l1.9,0L38.86,34.99L38.86,34.99z M43.26,18.35l0.52,1.61l1.69,0 l-1.37,0.99l0.53,1.61l-1.37-1l-1.37,1l0.53-1.61l-1.37-0.99l1.69,0L43.26,18.35L43.26,18.35z"/><path class="st6" d="M37.37,8.01c-2.71,1.06-7.24,0.27-12.15-1.02c1.28,3.73-1.4,12.85-3.91,11.87c0.69,0.72,1.43,1.37,2.23,1.95 c3.39,2.42,9,3.81,12.89,2.12c4.16-1.81,5.98-5.12,4.86-9.47c-0.28-1.1-0.72-2.17-1.27-3.2c0.54-0.22,0.85-0.54,0.8-0.94 C40.54,6.89,36.82,4.98,37.37,8.01L37.37,8.01z"/><path class="st0" d="M21.01,2.62c6.25-5.16,12.95-2.31,17.31,5.23c-3.21,1.44-8.27,0.42-13.08-0.86 c1.45,4.51-1.49,12.73-4.69,12.86c-2.4-2.22-3.4-4.58-3.21-7.06C17.55,10,18.03,5.69,21.01,2.62L21.01,2.62z"/></g></svg>